<svg version="1.1" xmlns="http://www.w3.org/2000/svg" xmlns:xlink="http://www.w3.org/1999/xlink" x="0px" y="0px"
	 viewBox="0 0 500 500" style="enable-background:new 0 0 500 500;" xml:space="preserve">
<g id="Background_Complete">
	<g>
		<rect y="382.398" style="fill:#EBEBEB;" width="500" height="0.25"/>
		<rect x="416.779" y="398.494" style="fill:#EBEBEB;" width="33.122" height="0.25"/>
		<rect x="322.527" y="401.208" style="fill:#EBEBEB;" width="8.693" height="0.25"/>
		<rect x="396.586" y="389.208" style="fill:#EBEBEB;" width="19.192" height="0.25"/>
		<rect x="52.459" y="390.888" style="fill:#EBEBEB;" width="43.193" height="0.25"/>
		<rect x="104.556" y="390.888" style="fill:#EBEBEB;" width="6.333" height="0.25"/>
		<rect x="131.471" y="395.111" style="fill:#EBEBEB;" width="93.676" height="0.25"/>
		<path style="fill:#EBEBEB;" d="M237.014,337.8H43.915c-3.147,0-5.708-2.561-5.708-5.708V60.66c0-3.147,2.561-5.708,5.708-5.708
			h193.099c3.146,0,5.707,2.561,5.707,5.708v271.432C242.721,335.239,240.16,337.8,237.014,337.8z M43.915,55.203
			c-3.01,0-5.458,2.448-5.458,5.458v271.432c0,3.01,2.448,5.458,5.458,5.458h193.099c3.009,0,5.457-2.448,5.457-5.458V60.66
			c0-3.009-2.448-5.458-5.457-5.458H43.915z"/>
		<path style="fill:#EBEBEB;" d="M453.31,337.8H260.212c-3.147,0-5.707-2.561-5.707-5.708V60.66c0-3.147,2.561-5.708,5.707-5.708
			H453.31c3.148,0,5.708,2.561,5.708,5.708v271.432C459.019,335.239,456.458,337.8,453.31,337.8z M260.212,55.203
			c-3.009,0-5.457,2.448-5.457,5.458v271.432c0,3.01,2.448,5.458,5.457,5.458H453.31c3.01,0,5.458-2.448,5.458-5.458V60.66
			c0-3.009-2.448-5.458-5.458-5.458H260.212z"/>
	</g>
	<g>
		<rect x="307.441" y="131.221" style="fill:#F5F5F5;" width="5.738" height="119.635"/>
		<rect x="283.345" y="100.654" style="fill:#F5F5F5;" width="53.932" height="73.495"/>
		<polygon style="fill:#EBEBEB;" points="192.328,256 207.903,185.173 263.455,194.95 250.317,267.036 		"/>
		<polygon style="fill:#F0F0F0;" points="140.723,215.253 185.152,205.509 208.791,272.348 154.595,287.741 		"/>
		<polygon style="fill:#F5F5F5;" points="225.079,268.54 231.33,214.646 292.799,218.236 290.6,274.632 		"/>
		<g>
			<path style="fill:#F0F0F0;" d="M93.305,378.676h-9.313V223.18h-7.984v155.495h-9.313c-1.828,0-3.311,1.482-3.311,3.311h33.231
				C96.615,380.158,95.133,378.676,93.305,378.676z"/>
			<path style="fill:#E0E0E0;" d="M94.645,230.298c-3.877-8.957-3.488-19.187,1.056-27.826c3.764-7.156,7.264-14.585,6.487-16.151
				c-1.582-3.189-3.165-4.723-11.084-5.652c-5.181-0.608-6.176-3.631-6.244-5.648c-0.034-1.001,0.399-1.965,1.14-2.641
				c7.26-6.617,7.66-21.769-4.614-23.721l-0.008-0.209c-0.404,0-0.797,0.013-1.18,0.037c-0.133,0.008-0.262,0.008-0.395,0
				c-0.382-0.024-0.775-0.037-1.18-0.037l-0.008,0.209c-12.274,1.952-11.873,17.104-4.614,23.721c0.741,0.675,1.174,1.639,1.14,2.64
				c-0.069,2.017-1.063,5.04-6.244,5.648c-7.919,0.929-9.501,2.463-11.083,5.652c-0.777,1.566,2.723,8.995,6.487,16.151
				c4.544,8.638,4.932,18.868,1.056,27.826c-3.422,7.907-6.935,18.746-7.555,30.856c-0.105,2.04,1.551,3.741,3.594,3.741h12.31
				h12.593h12.31c2.042,0,3.698-1.702,3.594-3.741C101.579,249.044,98.067,238.205,94.645,230.298z"/>
		</g>
		<g>
			<path style="fill:#F0F0F0;" d="M433.305,378.676h-9.313V223.18h-7.984v155.495h-9.313c-1.828,0-3.311,1.482-3.311,3.311h33.231
				C436.615,380.158,435.133,378.676,433.305,378.676z"/>
			<path style="fill:#E0E0E0;" d="M434.645,230.298c-3.877-8.957-3.488-19.187,1.056-27.826c3.764-7.156,7.264-14.585,6.487-16.151
				c-1.582-3.189-3.165-4.723-11.084-5.652c-5.181-0.608-6.176-3.631-6.244-5.648c-0.034-1.001,0.399-1.965,1.14-2.641
				c7.26-6.617,7.66-21.769-4.614-23.721l-0.008-0.209c-0.404,0-0.797,0.013-1.18,0.037c-0.133,0.008-0.262,0.008-0.395,0
				c-0.383-0.024-0.775-0.037-1.18-0.037l-0.008,0.209c-12.274,1.952-11.873,17.104-4.613,23.721c0.741,0.675,1.174,1.639,1.14,2.64
				c-0.068,2.017-1.063,5.04-6.244,5.648c-7.919,0.929-9.501,2.463-11.083,5.652c-0.777,1.566,2.723,8.995,6.487,16.151
				c4.543,8.638,4.932,18.868,1.056,27.826c-3.422,7.907-6.935,18.746-7.555,30.856c-0.105,2.04,1.551,3.741,3.594,3.741h12.31
				h12.593h12.31c2.042,0,3.698-1.702,3.594-3.741C441.579,249.044,438.067,238.205,434.645,230.298z"/>
		</g>
		<rect x="122.009" y="245.986" style="fill:#E0E0E0;" width="230.167" height="76.012"/>
		<path style="fill:#E0E0E0;" d="M327.695,378.676c-1.828,0-3.311,1.482-3.311,3.311h33.231c0-1.828-1.482-3.311-3.311-3.311h-9.313
			V230.789v-7.609h-7.984H134.992h-7.984v7.609v147.886h-9.313c-1.828,0-3.311,1.482-3.311,3.311h33.231
			c0-1.828-1.482-3.311-3.311-3.311h-9.313V230.789h202.016v147.886H327.695z"/>
	</g>
</g>
<g id="Backgorund_Simple" style="display:none;">
	<g style="display:inline;">
		<path style="fill:#407BFF;" d="M99.014,146.562c4.996-5.459,10.875-10.065,17.487-13.408c18.816-9.51,41.926-7.966,61.184,0.615
			c19.257,8.58,35.061,23.516,48.196,40.007c10.465,13.139,20.318,28.102,35.805,34.606c20.613,8.657,45.537-1.302,59.76-18.553
			c15.717-19.062,33.435-50.586,62.941-35.99c47.448,23.473,13.03,109.123-10.064,137.005
			c-23.271,28.095-57.315,46.588-93.264,52.791s-73.573,0.427-106.887-14.438c-45.729-20.404-84.815-60.727-93.121-110.109
			c-2.752-16.364-2.051-33.519,3.733-49.073C87.983,161.408,92.821,153.329,99.014,146.562z"/>
		<path style="opacity:0.9;fill:#FFFFFF;enable-background:new    ;" d="M99.014,146.562c4.996-5.459,10.875-10.065,17.487-13.408
			c18.816-9.51,41.926-7.966,61.184,0.615c19.257,8.58,35.061,23.516,48.196,40.007c10.465,13.139,20.318,28.102,35.805,34.606
			c20.613,8.657,45.537-1.302,59.76-18.553c15.717-19.062,33.435-50.586,62.941-35.99c47.448,23.473,13.03,109.123-10.064,137.005
			c-23.271,28.095-57.315,46.588-93.264,52.791s-73.573,0.427-106.887-14.438c-45.729-20.404-84.815-60.727-93.121-110.109
			c-2.752-16.364-2.051-33.519,3.733-49.073C87.983,161.408,92.821,153.329,99.014,146.562z"/>
	</g>
</g>
<g id="Shadow_1_">
	<ellipse id="_x3C_Path_x3E__359_" style="fill:#F5F5F5;" cx="250" cy="416.238" rx="193.889" ry="11.323"/>
</g>
<g id="Board">
	<g>
		<polygon style="fill:#263238;" points="374.796,417.795 392.001,285.547 395.079,285.547 398.276,285.547 398.463,285.547 
			400.541,285.547 401.976,285.547 431.717,417.795 428.472,417.795 401.66,300.366 410.526,417.795 406.817,417.795 
			396.351,299.882 378.981,417.795 		"/>
		<polygon style="opacity:0.6;fill:#FFFFFF;enable-background:new    ;" points="374.796,417.795 392.001,285.547 395.079,285.547 
			398.276,285.547 398.463,285.547 400.541,285.547 401.976,285.547 431.717,417.795 428.472,417.795 401.66,300.366 
			410.526,417.795 406.817,417.795 396.351,299.882 378.981,417.795 		"/>
		<g>
			<polygon style="fill:#407BFF;" points="342.925,394.904 416.302,394.904 433.34,242.04 359.963,242.04 			"/>
			<polygon style="opacity:0.6;fill:#FFFFFF;enable-background:new    ;" points="342.925,394.904 416.302,394.904 433.34,242.04 
				359.963,242.04 			"/>
		</g>
		<polygon style="opacity:0.6;fill:#FFFFFF;enable-background:new    ;" points="368.526,282.179 368.526,266.632 374.796,273.491 
			391.343,252.115 400.939,273.491 416.526,261.934 407.031,284.745 416.526,293.319 400.939,298.088 405.403,316.759 
			388.931,309.144 378.548,326.641 372.218,311.413 361.669,316.242 365.361,301.492 357.977,297.331 364.834,293.319 
			360.614,284.745 		"/>
		<g>
			<path style="fill:#407BFF;" d="M373.897,282.94c0.722-3.171,3.056-4.757,5.455-4.211c2.399,0.546,3.697,2.872,3.006,5.905
				c-0.722,3.171-2.897,4.823-5.461,4.239C374.416,288.309,373.207,285.974,373.897,282.94z M376.104,283.443
				c-0.483,2.123,0.183,3.146,1.286,3.397c1.186,0.27,2.269-0.412,2.79-2.701c0.477-2.096-0.288-3.198-1.308-3.431
				C377.852,280.476,376.618,281.182,376.104,283.443z M376.567,298.864l-2.868-0.653l16.107-16.986l2.868,0.653L376.567,298.864z
				 M384.699,295.378c0.722-3.171,3.055-4.758,5.454-4.211c2.4,0.546,3.697,2.872,3.006,5.905c-0.722,3.171-2.896,4.823-5.461,4.239
				C385.217,300.746,384.009,298.411,384.699,295.378z M386.905,295.88c-0.483,2.124,0.183,3.146,1.286,3.397
				c1.186,0.27,2.269-0.412,2.79-2.701c0.477-2.096-0.287-3.198-1.307-3.43C388.654,292.913,387.42,293.618,386.905,295.88z"/>
		</g>
		<g style="opacity:0.2;enable-background:new    ;">
			<path style="fill:#FFFFFF;" d="M373.897,282.94c0.722-3.171,3.056-4.757,5.455-4.211c2.399,0.546,3.697,2.872,3.006,5.905
				c-0.722,3.171-2.897,4.823-5.461,4.239C374.416,288.309,373.207,285.974,373.897,282.94z M376.104,283.443
				c-0.483,2.123,0.183,3.146,1.286,3.397c1.186,0.27,2.269-0.412,2.79-2.701c0.477-2.096-0.288-3.198-1.308-3.431
				C377.852,280.476,376.618,281.182,376.104,283.443z M376.567,298.864l-2.868-0.653l16.107-16.986l2.868,0.653L376.567,298.864z
				 M384.699,295.378c0.722-3.171,3.055-4.758,5.454-4.211c2.4,0.546,3.697,2.872,3.006,5.905c-0.722,3.171-2.896,4.823-5.461,4.239
				C385.217,300.746,384.009,298.411,384.699,295.378z M386.905,295.88c-0.483,2.124,0.183,3.146,1.286,3.397
				c1.186,0.27,2.269-0.412,2.79-2.701c0.477-2.096-0.287-3.198-1.307-3.43C388.654,292.913,387.42,293.618,386.905,295.88z"/>
		</g>
		<polygon style="fill:#FFFFFF;" points="367.471,339.487 399.903,339.897 399.903,345.141 367.471,345.141 		"/>
		<polygon style="fill:#FFFFFF;" points="357.977,351.671 410.535,351.671 410.535,358.446 355.603,358.239 		"/>
		<polygon style="opacity:0.3;enable-background:new    ;" points="355.603,370.195 354.021,383.954 367.471,383.954 
			367.471,370.195 		"/>
		<polygon style="opacity:0.3;enable-background:new    ;" points="375.944,370.195 374.796,383.954 388.926,383.954 
			388.936,372.245 		"/>
		<polygon style="opacity:0.3;enable-background:new    ;" points="399.903,372.245 397.537,383.954 407.971,383.954 
			407.971,372.245 		"/>
	</g>
</g>
<g id="Character">
	<g>
		<path style="fill:#EBB376;" d="M175.901,197.57c9.253-1.659,7.571,31.295,11.193,39.078c3.622,7.783,26.264,27.814,26.264,27.814
			s9.832,0.818,11.396,1.626c1.564,0.807,1.736,6.582,0.458,6.582c-1.278,0-11.982,0.091-13.596-0.767
			c-1.614-0.859-2.413-4.243-2.413-4.243s-23.803-13.939-28.715-25.739c-4.095-9.839-7.94-26.846-9.029-32.88
			C170.37,203.005,173.557,197.99,175.901,197.57z"/>
		<path style="fill:#407BFF;" d="M78.483,316.187c0,0,5.802-5.802,15.297,1.846c9.494,7.648,14.506,18.198,30.725,12.659
			c16.22-5.538,41.011,10.004,46.022-1.196c0,0-8.397-22.054-24.72-28.87C129.385,293.769,86.923,309.857,78.483,316.187z"/>
		<path style="fill:#EBB376;" d="M132.401,283.22c-0.149,3.634-0.525,11.58-1.231,19.76c-0.93,10.93-2.45,22.28-4.76,24.35
			c-0.23,0.21-0.5,0.45-0.8,0.69c-1.13,0.93-2.74,2.16-4.73,3.62c-5.02,3.67-12.45,8.79-20.5,14.25c-1.14,0.77-2.28,1.54-3.43,2.31
			c-6.02,4.06-12.25,8.21-17.99,12.01c-2.25,1.5-4.43,2.95-6.5,4.31c-9.79,6.47-17.02,11.12-17.02,11.12l3.21,4.59
			c0,0,3.52-2.05,10.3-4.85v-0.01c1.89-0.76,3.91-1.63,6.04-2.6c4.24-1.91,8.92-4.18,13.87-6.65c1.46-0.73,2.95-1.47,4.45-2.24
			c10.84-5.49,22.47-11.78,31.98-17.91c5.69-3.66,10.62-7.27,14.17-10.62c2.95-2.78,4.96-5.38,5.65-7.69
			c2.11-6.97,4.09-18.02,5.55-28.9c0.736-5.416,1.375-10.773,1.902-15.54H132.401z"/>
		<path style="fill:#407BFF;" d="M57.162,372.954c0.714-0.144,2.129,8.712,2.129,8.712s-4.25,6.605-4.299,12.1
			c-0.049,5.495-3.838,3.286-5.156-2.545c-1.317-5.831-2.323-10.282-3.259-14.425C45.642,372.653,49.757,374.445,57.162,372.954z"/>
		<path style="opacity:0.2;enable-background:new    ;" d="M154.27,266.02c0,0-1.35,16.11-3.61,32.74
			c-1.46,10.88-3.44,21.93-5.55,28.9c-0.69,2.31-2.7,4.91-5.65,7.69c-3.55,3.35-8.48,6.96-14.17,10.62
			c-1.69-4.9-3.2-9.97-4.41-14.33c1.99-1.46,3.6-2.69,4.73-3.62c0.3-0.24,0.57-0.48,0.8-0.69c2.31-2.07,3.83-13.42,4.76-24.35
			c0.96-11.12,1.31-21.82,1.31-21.82L154.27,266.02z"/>
		<path style="fill:#263238;" d="M157.835,251.031l-30.593-5.045c0.939,0.155,6.879-13.005,8.234-17.692
			c1.871-6.47,3.33-18.856,2.057-26.863c-0.003-0.02-0.006-0.039-0.009-0.058c-0.521-3.413,1.941-6.586,5.383-6.853
			c2.44-0.189,4.887-0.284,7.343-0.289c4.854-0.058,9.713,0.229,14.535,0.855c6.194,0.975,13.191,2.852,13.191,2.852
			s0.965,0.413,0.522,7.07C178.06,211.271,175.706,231.667,157.835,251.031z"/>
		<path style="fill:#EBB376;" d="M169.28,188.93c0,0-3.94,2.55-4.62,4.23c-0.04,0.09-0.07,0.2-0.1,0.33c-0.25,0.97-0.4,2.9-0.4,2.9
			c1.15,3.37-3.16,5.3-3.16,5.3c-7.68-2.31-9.48-6.05-9.48-6.05c6.32-2.48,7.53-14.59,7.53-14.59l3.06,2.36L169.28,188.93z"/>
		<path style="fill:#EBB376;" d="M175.242,370.297l-8.048-17.938l-10.947-24.408l-1.937-4.239l-8.469-18.495l-10.07-21.997h-23.014
			c3.011,10.202,9.035,21.448,15.288,31.382c6.127,9.746,12.471,18.226,16.372,23.227c2.341,3,3.797,4.74,3.797,4.74
			c4.557,10.548,10.369,21.439,16.033,31.225c2.316,3.984,4.596,7.787,6.768,11.299c8.034,13.003,14.445,22.055,14.445,22.055
			l4.958-3.008L175.242,370.297z"/>
		<path style="fill:#407BFF;" d="M182.118,404.612c-0.279-0.673,8.141-3.765,8.141-3.765s7.299,2.901,12.701,1.892
			c5.402-1.008,3.963,3.135-1.506,5.549c-5.469,2.414-9.643,4.256-13.53,5.971C184.037,415.974,185.005,411.592,182.118,404.612z"/>
		<g>
			<path style="fill:#407BFF;" d="M127.242,245.986c0,0-16.628,8.32-17.637,30.64c-0.56,12.396-31.121,39.56-31.121,39.56
				s1.257,4.483,9.859,4.747c8.603,0.264,24.69-9.231,36.031-6.593c11.341,2.637,10.286,6.857,19.253,5.011
				c8.967-1.846,18.19,0.478,26.901,10.145c0,0,3.93-32.035-12.838-55.776c0,0-1.321-6.311,0.146-22.69L127.242,245.986z"/>
		</g>
		<path style="opacity:0.6;fill:#FFFFFF;enable-background:new    ;" d="M127.242,245.986c0,0-16.628,8.32-17.637,30.64
			c-0.56,12.396-31.121,39.56-31.121,39.56s1.257,4.483,9.859,4.747c8.603,0.264,24.69-9.231,36.031-6.593
			c11.341,2.637,10.286,6.857,19.253,5.011c8.967-1.846,18.19,0.478,26.901,10.145c0,0,3.93-32.035-12.838-55.776
			c0,0-1.321-6.311,0.146-22.69L127.242,245.986z"/>
		<polygon style="fill:#407BFF;" points="127.984,244.344 157.835,251.031 157.426,256.413 124.506,247.725 		"/>
		<path style="opacity:0.2;enable-background:new    ;" d="M148.889,250.857c0,1.098-0.89,1.989-1.989,1.989
			s-1.989-0.89-1.989-1.989c0-1.098,0.89-1.989,1.989-1.989S148.889,249.758,148.889,250.857z"/>
		<path style="opacity:0.2;enable-background:new    ;" d="M169.28,188.93c0,0-3.94,2.55-4.62,4.23c-0.04,0.09-0.07,0.2-0.1,0.33
			c-5.74-4.39-5.01-10.95-5.01-10.95l2.56,0.87L169.28,188.93z"/>
		<g>
			
				<path style="fill:none;stroke:#263238;stroke-width:0.4885;stroke-linecap:round;stroke-linejoin:round;stroke-miterlimit:10;" d="
				M174.356,159.726c0,0,7.968-2.231,11.825,4.197c3.857,6.429,0.773,11.301-1.906,13.624"/>
			<path style="fill:#263238;" d="M176.828,160.178c0,0,6.491,0.198,8.285,5.683c1.794,5.486,0.461,11.642-9.175,18.281
				c-9.636,6.639-17.802,0.258-21.588-4.188c-3.786-4.446-2.809-19.161,7.704-22.038
				C173.034,154.912,176.828,160.178,176.828,160.178z"/>
			<path style="fill:#EBB376;" d="M170.636,162.01c8.251,1.124,10.305,5.904,9.752,14.489c-0.692,10.729-4.077,17.958-14.085,14.283
				C152.712,185.791,156.933,160.143,170.636,162.01z"/>
			<path style="fill:#D58745;" d="M175.117,175.311c0,0,0.85,2.311,1.935,3.749c0,0-0.859,1.026-2.302,0.637L175.117,175.311z"/>
			<g>
				<path style="fill:#263238;" d="M170.158,173.948c-0.077,0.68-0.506,1.19-0.959,1.139c-0.453-0.051-0.759-0.644-0.682-1.323
					c0.077-0.68,0.506-1.19,0.959-1.139C169.929,172.676,170.235,173.268,170.158,173.948z"/>
				<path style="fill:#263238;" d="M169.283,172.636l1.544-0.414C170.827,172.223,169.951,173.384,169.283,172.636z"/>
			</g>
			<g>
				<path style="fill:#263238;" d="M178.627,174.757c-0.077,0.68-0.506,1.19-0.959,1.139c-0.453-0.051-0.759-0.643-0.682-1.323
					c0.076-0.68,0.506-1.19,0.959-1.139C178.398,173.485,178.704,174.077,178.627,174.757z"/>
				<path style="fill:#263238;" d="M177.752,173.445l1.544-0.414C179.296,173.032,178.42,174.193,177.752,173.445z"/>
			</g>
			
				<path style="fill:none;stroke:#263238;stroke-width:0.708;stroke-linecap:round;stroke-linejoin:round;stroke-miterlimit:10;" d="
				M170.852,168.239c0,0-2.277-0.617-3.749,0.76"/>
			
				<path style="fill:none;stroke:#263238;stroke-width:0.708;stroke-linecap:round;stroke-linejoin:round;stroke-miterlimit:10;" d="
				M176.897,168.707c0,0,1.531-0.341,3.196,1.126"/>
			<path style="fill:#263238;" d="M159.724,174.688c0,0,4.781-6.254,4.91-11.567c0,0,17.262-4.453,15.808,12.254
				c0,0,3.605-14.52-10.535-16.78c-14.117-2.257-16.906,18.499-10.423,25.68C159.484,184.275,156.76,178.603,159.724,174.688z"/>
			<path style="fill:#EBB376;" d="M160.835,176.614c0.126-1.336-0.939-3.771-3.446-3.838c-2.595-0.069-4.529,5.014,1.66,7.143
				C159.936,180.223,160.572,179.401,160.835,176.614z"/>
			<path style="fill:#263238;" d="M160.4,159.659c0,0-0.74-4.22-5.477-7.121c-4.737-2.901-9.879-1.055-14.231,8.571
				c-4.352,9.626-10.681,7.517-13.451,5.143c0,0,0.923,4.604,7.385,6.522c6.462,1.918,10.154-1.379,13.187-6.786
				s8.354-3.033,8.354-3.033L160.4,159.659z"/>
			<g>
				<path style="fill:#263238;" d="M174.306,182.163c-0.436,1.053-0.831,3.01-0.831,3.01c-0.184-0.004-0.368-0.008-0.551-0.021
					c-2.491-0.115-3.609-0.991-4.093-1.927c-0.263-0.513-0.33-1.051-0.327-1.487c-0.002-0.504,0.112-0.864,0.112-0.864
					c1.284,0.85,3.598,1.136,4.841,1.237C173.977,182.158,174.306,182.163,174.306,182.163z"/>
				<path style="fill:#FFFFFF;" d="M173.458,182.11l-0.268,0.881c-2.346-0.114-3.983-0.509-4.685-1.254
					c-0.002-0.504,0.112-0.864,0.112-0.864C169.901,181.723,172.215,182.009,173.458,182.11z"/>
				<path style="fill:#DE5753;" d="M172.925,185.152c-2.491-0.115-3.609-0.991-4.093-1.927c0.847,0.072,1.861,0.253,2.741,0.676
					C172.247,184.221,172.658,184.687,172.925,185.152z"/>
			</g>
			
				<path style="fill:none;stroke:#263238;stroke-width:0.4885;stroke-linecap:round;stroke-linejoin:round;stroke-miterlimit:10;" d="
				M157.004,162.305c0,0-2.564-2.537-5.877,0.574c-3.313,3.111-3.544,9.979-8.885,11.787"/>
			<g>
				<path style="fill:#407BFF;" d="M150.6,183.141c0.247-0.024,0.472-0.154,0.616-0.356l2.84-3.99
					c0.258-0.362,0.196-0.861-0.143-1.149l-3.866-3.292c-0.182-0.155-0.422-0.227-0.66-0.198l-9.292,1.139
					c-0.447,0.055-0.775,0.447-0.751,0.896l0.384,7.097c0.026,0.486,0.452,0.853,0.937,0.806L150.6,183.141z M152.121,178.412
					c-0.006-0.322,0.25-0.588,0.572-0.593c0.322-0.006,0.588,0.25,0.594,0.572c0.006,0.322-0.25,0.588-0.572,0.594
					C152.392,178.99,152.127,178.734,152.121,178.412z"/>
				<g>
					<path style="fill:#FFFFFF;" d="M146.215,176.046c0.962-0.018,1.582,0.54,1.596,1.268c0.013,0.727-0.562,1.265-1.482,1.282
						c-0.962,0.018-1.59-0.49-1.604-1.267C144.711,176.576,145.295,176.063,146.215,176.046z M146.228,176.715
						c-0.644,0.012-0.89,0.276-0.884,0.61c0.007,0.36,0.279,0.622,0.973,0.61c0.635-0.012,0.898-0.309,0.892-0.619
						C147.203,177.007,146.913,176.702,146.228,176.715z M141.834,177.941l-0.016-0.87l6.018,3.42l0.016,0.87L141.834,177.941z
						 M143.411,180.029c0.962-0.018,1.582,0.54,1.596,1.267c0.013,0.727-0.562,1.265-1.482,1.282
						c-0.962,0.018-1.59-0.489-1.604-1.267C141.907,180.558,142.491,180.045,143.411,180.029z M143.423,180.697
						c-0.644,0.012-0.89,0.276-0.884,0.61c0.007,0.36,0.279,0.622,0.973,0.61c0.635-0.012,0.898-0.309,0.892-0.618
						C144.398,180.989,144.109,180.685,143.423,180.697z"/>
				</g>
			</g>
			<path style="fill:none;stroke:#FFFFFF;stroke-width:0.5;stroke-linecap:round;stroke-linejoin:round;stroke-miterlimit:10;" d="
				M153.275,178.346c0,0,6.218-3.037,6.245-8.123"/>
			<path style="fill:#407BFF;" d="M158.56,169.833l6.635-12.591c0,0,9.09,0.34,16.31,1.724c0,0,2.569,2.027,1.136,3.338
				c-1.433,1.311-4.497,0.365-5.393-0.392c-0.896-0.757-1.348-2.644-1.348-2.644l-1.594-0.203c0,0,1.488,3.313-0.849,3.239
				c-2.337-0.074-6.622-1.557-7.447-3.733l-7.225,12.778L158.56,169.833z"/>
		</g>
		<path style="fill:#EBB376;" d="M140.153,195.233c11.367-1.743,12.401,33.393,16.851,41.569
			c4.45,8.176,32.264,29.218,32.264,29.218s9.072-0.848,10.994,0c1.922,0.848,2.133,6.914,0.563,6.914
			c-1.571,0-11.714,1.804-13.696,0.902c-1.983-0.902-2.964-4.457-2.964-4.457s-29.24-14.643-35.275-27.038
			c-5.031-10.335-9.753-28.201-11.092-34.54C136.459,201.462,137.274,195.675,140.153,195.233z"/>
		<path style="fill:#407BFF;" d="M156.149,214.058l5.695,10.854c0.493,0.94,1.801,1.039,2.43,0.184l7.138-9.702
			c0.664-0.902,0.086-2.183-1.029-2.283l-12.833-1.152C156.417,211.857,155.62,213.05,156.149,214.058z"/>
		<path style="fill:#FFFFFF;" d="M155.297,218.282v0.326c0,0.773,0.607,1.41,1.379,1.447l13.269,0.635
			c0.737,0.035,1.383-0.489,1.499-1.218l0,0c0.134-0.839-0.479-1.612-1.326-1.674l-13.269-0.96
			C156.011,216.777,155.297,217.441,155.297,218.282z"/>
	</g>
</g>
<g id="Cart">
	<g>
		<g>
			<path style="fill:#407BFF;" d="M316.415,226.886c0.066,0.535,0.362,1.014,0.81,1.314l8.825,5.914
				c0.801,0.536,1.879,0.372,2.483-0.379l6.904-8.586c0.326-0.405,0.467-0.928,0.389-1.442l-3.038-20.082
				c-0.146-0.966-1.016-1.654-1.99-1.574l-15.367,1.267c-1.053,0.087-1.822,1.033-1.691,2.082L316.415,226.886z M326.763,229.895
				c0.697-0.032,1.29,0.507,1.322,1.205c0.033,0.698-0.507,1.29-1.204,1.322c-0.698,0.032-1.29-0.507-1.322-1.205
				C325.526,230.519,326.065,229.927,326.763,229.895z"/>
			<path style="opacity:0.6;fill:#FFFFFF;enable-background:new    ;" d="M316.415,226.886c0.066,0.535,0.362,1.014,0.81,1.314
				l8.825,5.914c0.801,0.536,1.879,0.372,2.483-0.379l6.904-8.586c0.326-0.405,0.467-0.928,0.389-1.442l-3.038-20.082
				c-0.146-0.966-1.016-1.654-1.99-1.574l-15.367,1.267c-1.053,0.087-1.822,1.033-1.691,2.082L316.415,226.886z M326.763,229.895
				c0.697-0.032,1.29,0.507,1.322,1.205c0.033,0.698-0.507,1.29-1.204,1.322c-0.698,0.032-1.29-0.507-1.322-1.205
				C325.526,230.519,326.065,229.927,326.763,229.895z"/>
			<g>
				<path style="fill:#407BFF;" d="M331.532,216.944c0.097,2.084-1.074,3.464-2.651,3.538c-1.576,0.073-2.777-1.142-2.87-3.136
					c-0.097-2.084,0.965-3.478,2.65-3.556C330.292,213.714,331.439,214.95,331.532,216.944z M330.082,217.011
					c-0.065-1.395-0.652-1.913-1.377-1.879c-0.779,0.036-1.332,0.643-1.263,2.147c0.064,1.377,0.726,1.928,1.396,1.897
					C329.509,219.145,330.151,218.497,330.082,217.011z M327.154,207.557l1.885-0.088l-7.048,13.259l-1.885,0.088L327.154,207.557z
					 M322.724,211.105c0.097,2.084-1.074,3.464-2.65,3.538c-1.577,0.073-2.777-1.142-2.87-3.136
					c-0.097-2.084,0.964-3.477,2.65-3.556C321.484,207.876,322.631,209.112,322.724,211.105z M321.274,211.173
					c-0.065-1.395-0.652-1.913-1.377-1.88c-0.78,0.036-1.333,0.643-1.263,2.147c0.064,1.377,0.725,1.928,1.396,1.897
					C320.701,213.306,321.343,212.659,321.274,211.173z"/>
			</g>
		</g>
		<path style="fill:none;stroke:#263238;stroke-linecap:round;stroke-linejoin:round;stroke-miterlimit:10;" d="M326.933,231.158
			c0,0,0.393,22.853-15.056,27.996"/>
		<g>
			<g>
				<path style="fill:#407BFF;" d="M280.633,252.189c-0.043,0-0.087-0.004-0.132-0.012c-0.384-0.067-9.436-1.712-11.925-5.871
					c-0.702-1.173-0.84-2.431-0.411-3.738c0.43-1.313,1.749-2.973,5.583-3.432c6.502-0.783,17.384,2.407,19.417,5.681
					c0.218,0.352,0.11,0.814-0.242,1.032c-0.351,0.221-0.814,0.11-1.033-0.241c-1.591-2.563-11.686-5.741-17.963-4.982
					c-1.684,0.201-3.803,0.783-4.337,2.41c-0.292,0.888-0.202,1.706,0.272,2.499c2.138,3.574,10.813,5.15,10.9,5.166
					c0.408,0.072,0.68,0.461,0.607,0.869C281.306,251.934,280.99,252.189,280.633,252.189z"/>
			</g>
			<polygon style="fill:#407BFF;" points="316.375,241.288 326.004,302.605 295.457,312.082 280.267,308.447 275.293,252.072 
				288.962,242.802 			"/>
			<polygon style="opacity:0.2;fill:#FFFFFF;enable-background:new    ;" points="295.457,312.082 288.962,242.802 275.293,252.072 
				280.267,308.447 			"/>
			<g>
				<path style="fill:#407BFF;" d="M295.418,247.141c-0.2,0-0.399-0.079-0.547-0.237c-0.23-0.244-5.621-6.06-5.365-11.599
					c0.095-2.047,0.944-3.795,2.524-5.196c1.905-1.688,4.35-2.055,7.075-1.064c5.873,2.138,12.022,10.26,12.751,15.164
					c0.061,0.41-0.222,0.791-0.631,0.853c-0.413,0.054-0.792-0.223-0.852-0.632c-0.665-4.472-6.497-12.051-11.781-13.975
					c-2.206-0.802-4.078-0.542-5.566,0.777c-1.283,1.137-1.943,2.491-2.02,4.14c-0.229,4.903,4.909,10.451,4.961,10.507
					c0.283,0.302,0.268,0.776-0.035,1.06C295.787,247.073,295.602,247.141,295.418,247.141z"/>
			</g>
			<g style="opacity:0.2;enable-background:new    ;">
				<path style="fill:#FFFFFF;" d="M295.418,247.141c-0.2,0-0.399-0.079-0.547-0.237c-0.23-0.244-5.621-6.06-5.365-11.599
					c0.095-2.047,0.944-3.795,2.524-5.196c1.905-1.688,4.35-2.055,7.075-1.064c5.873,2.138,12.022,10.26,12.751,15.164
					c0.061,0.41-0.222,0.791-0.631,0.853c-0.413,0.054-0.792-0.223-0.852-0.632c-0.665-4.472-6.497-12.051-11.781-13.975
					c-2.206-0.802-4.078-0.542-5.566,0.777c-1.283,1.137-1.943,2.491-2.02,4.14c-0.229,4.903,4.909,10.451,4.961,10.507
					c0.283,0.302,0.268,0.776-0.035,1.06C295.787,247.073,295.602,247.141,295.418,247.141z"/>
			</g>
		</g>
		<g>
			<g>
				<path style="fill:#407BFF;" d="M259.503,292.314c-0.473,0-0.952-0.134-1.376-0.415l-25.753-17.03
					c-0.484-0.32-1.047-0.489-1.627-0.489h-47.751l16.946,13.478c1.081,0.859,1.26,2.433,0.4,3.514
					c-0.86,1.08-2.433,1.258-3.513,0.4l-22.55-17.935c-0.832-0.662-1.154-1.777-0.804-2.781c0.351-1.004,1.297-1.676,2.36-1.676
					h54.911c1.564,0,3.08,0.456,4.385,1.319l25.753,17.03c1.152,0.762,1.468,2.313,0.706,3.464
					C261.11,291.92,260.314,292.314,259.503,292.314z"/>
			</g>
			<g style="opacity:0.3;enable-background:new    ;">
				<path d="M259.503,292.314c-0.473,0-0.952-0.134-1.376-0.415l-25.753-17.03c-0.484-0.32-1.047-0.489-1.627-0.489h-47.751
					l16.946,13.478c1.081,0.859,1.26,2.433,0.4,3.514c-0.86,1.08-2.433,1.258-3.513,0.4l-22.55-17.935
					c-0.832-0.662-1.154-1.777-0.804-2.781c0.351-1.004,1.297-1.676,2.36-1.676h54.911c1.564,0,3.08,0.456,4.385,1.319l25.753,17.03
					c1.152,0.762,1.468,2.313,0.706,3.464C261.11,291.92,260.314,292.314,259.503,292.314z"/>
			</g>
		</g>
		<g>
			<polygon style="fill:#407BFF;" points="206.357,330.296 239.008,258 272.692,253.212 280.632,265.474 267.154,346.349 
				229.1,349.549 			"/>
			<polygon style="opacity:0.6;fill:#FFFFFF;enable-background:new    ;" points="206.357,330.296 239.008,258 272.692,253.212 
				280.632,265.474 267.154,346.349 229.1,349.549 			"/>
			<polygon style="opacity:0.2;enable-background:new    ;" points="272.692,253.212 252.121,321.659 206.357,330.296 
				229.1,349.549 267.154,346.349 280.632,265.474 			"/>
			<polygon style="opacity:0.2;enable-background:new    ;" points="206.357,330.296 252.121,321.659 267.154,346.349 
				229.1,349.549 			"/>
			<g>
				<path style="fill:#263238;" d="M247.066,267.036c-0.234,0-0.47-0.004-0.71-0.012c-3.646-0.121-5.648-0.951-6.124-2.537
					c-0.847-2.827,3.976-6.41,4.951-7.1c0.34-0.238,0.806-0.158,1.045,0.18c0.239,0.338,0.159,0.806-0.179,1.045
					c-2.06,1.458-4.78,4.111-4.38,5.444c0.12,0.398,0.82,1.338,4.737,1.468c11.285,0.405,16.631-9.013,16.684-9.107
					c0.201-0.361,0.657-0.493,1.019-0.293c0.362,0.201,0.494,0.656,0.294,1.019C264.348,257.243,258.807,267.036,247.066,267.036z"
					/>
			</g>
		</g>
		<g>
			<polygon style="fill:#263238;" points="269.236,351.599 267.154,279.132 303.948,272.673 321.009,279.132 318.429,345.184 
				301.22,353.901 			"/>
			<polygon style="opacity:0.3;enable-background:new    ;" points="303.948,272.673 301.22,353.901 318.429,345.184 
				321.009,279.132 			"/>
			<g>
				<path style="fill:#407BFF;" d="M285.052,298.237c-2.004,0-3.718-0.713-5.099-2.122c-4.457-4.551-3.877-14.878-3.85-15.315
					c0.025-0.413,0.384-0.725,0.794-0.702c0.413,0.024,0.728,0.381,0.703,0.794c-0.006,0.101-0.566,10.103,3.426,14.175
					c1.168,1.191,2.586,1.729,4.318,1.665c1.545-0.063,2.807-0.68,3.856-1.885c4.238-4.867,3.093-17.207,3.081-17.332
					c-0.04-0.412,0.262-0.778,0.674-0.818c0.41-0.054,0.779,0.261,0.819,0.673c0.052,0.533,1.219,13.106-3.442,18.462
					c-1.316,1.512-2.973,2.318-4.926,2.398C285.287,298.234,285.168,298.237,285.052,298.237z"/>
			</g>
			<g style="opacity:0.3;enable-background:new    ;">
				<path d="M285.052,298.237c-2.004,0-3.718-0.713-5.099-2.122c-4.457-4.551-3.877-14.878-3.85-15.315
					c0.025-0.413,0.384-0.725,0.794-0.702c0.413,0.024,0.728,0.381,0.703,0.794c-0.006,0.101-0.566,10.103,3.426,14.175
					c1.168,1.191,2.586,1.729,4.318,1.665c1.545-0.063,2.807-0.68,3.856-1.885c4.238-4.867,3.093-17.207,3.081-17.332
					c-0.04-0.412,0.262-0.778,0.674-0.818c0.41-0.054,0.779,0.261,0.819,0.673c0.052,0.533,1.219,13.106-3.442,18.462
					c-1.316,1.512-2.973,2.318-4.926,2.398C285.287,298.234,285.168,298.237,285.052,298.237z"/>
			</g>
		</g>
		<g>
			<path style="fill:#263238;" d="M337.507,407.17c-1.738-3.01-6.182-3.697-9.926-1.536c-3.744,2.162-5.371,6.354-3.633,9.364
				c1.738,3.01,6.182,3.697,9.926,1.536C337.618,414.372,339.245,410.18,337.507,407.17z"/>
			<path style="fill:#263238;" d="M243.581,405.634c-3.744,2.162-5.371,6.354-3.633,9.364c1.738,3.01,6.182,3.697,9.926,1.536
				c3.744-2.162,5.371-6.354,3.633-9.364C251.769,404.16,247.325,403.473,243.581,405.634z"/>
		</g>
		<g>
			<path style="fill:#407BFF;" d="M326.508,408.728h-81.512c-1.381,0-2.5-1.119-2.5-2.5c0-1.381,1.119-2.5,2.5-2.5h81.512
				c0.838,0,1.52-0.682,1.52-1.518v-6.484c0-0.71-0.504-1.335-1.198-1.485l-67.401-14.579c-6.022-1.302-10.393-6.719-10.393-12.881
				v-12.681c0-1.381,1.119-2.5,2.5-2.5c1.381,0,2.5,1.119,2.5,2.5v12.681c0,3.824,2.712,7.186,6.45,7.994l67.402,14.579
				c2.979,0.645,5.141,3.324,5.141,6.372v6.484C333.028,405.804,330.103,408.728,326.508,408.728z"/>
		</g>
		<g style="opacity:0.3;enable-background:new    ;">
			<path d="M326.508,408.728h-81.512c-1.381,0-2.5-1.119-2.5-2.5c0-1.381,1.119-2.5,2.5-2.5h81.512c0.838,0,1.52-0.682,1.52-1.518
				v-6.484c0-0.71-0.504-1.335-1.198-1.485l-67.401-14.579c-6.022-1.302-10.393-6.719-10.393-12.881v-12.681
				c0-1.381,1.119-2.5,2.5-2.5c1.381,0,2.5,1.119,2.5,2.5v12.681c0,3.824,2.712,7.186,6.45,7.994l67.402,14.579
				c2.979,0.645,5.141,3.324,5.141,6.372v6.484C333.028,405.804,330.103,408.728,326.508,408.728z"/>
		</g>
		<g>
			<path style="fill:#407BFF;" d="M326.439,322.56c0.013-0.057,0.022-0.115,0.031-0.174l2.917-16.133
				c0.002-0.008,0.003-0.016,0.004-0.024l2.995-16.565c0.132-0.729-0.067-1.479-0.542-2.047c-0.475-0.569-1.178-0.897-1.918-0.897
				h-8.784c-0.006,0-0.012,0-0.018,0h-22.975c-1.381,0-2.5,1.119-2.5,2.5c0,1.381,1.119,2.5,2.5,2.5h9.104l-1.607,11.521H237.17
				c-1.381,0-2.5,1.119-2.5,2.5c0,1.381,1.119,2.5,2.5,2.5h67.778l-1.57,11.25H241.32c-1.381,0-2.5,1.119-2.5,2.5
				c0,1.381,1.119,2.5,2.5,2.5h61.361l-1.62,11.609H245.32c-1.381,0-2.5,1.119-2.5,2.5c0,1.381,1.119,2.5,2.5,2.5h55.044
				l-1.465,10.499h-6.472c-1.381,0-2.5,1.119-2.5,2.5c0,1.381,1.119,2.5,2.5,2.5h25.77c1.209,0,2.245-0.865,2.46-2.056l2.789-15.429
				c0.002-0.01,0.003-0.019,0.005-0.029L326.439,322.56z M321.913,319.49h-3.484l1.975-11.25h3.543L321.913,319.49z M321.009,324.49
				L318.91,336.1h-3.396l2.038-11.609H321.009z M324.85,303.24h-3.569l2.022-11.521h3.63L324.85,303.24z M312.302,291.72h5.925
				l-2.022,11.521h-5.51L312.302,291.72z M309.997,308.24h5.33l-1.975,11.25h-4.925L309.997,308.24z M307.73,324.49h4.745
				l-2.038,11.609h-4.327L307.73,324.49z M305.413,341.1h4.147l-1.843,10.499h-3.769L305.413,341.1z M312.793,351.599l1.843-10.499
				h3.37l-1.898,10.499H312.793z"/>
		</g>
		<g style="opacity:0.3;enable-background:new    ;">
			<path d="M326.439,322.56c0.013-0.057,0.022-0.115,0.031-0.174l2.917-16.133c0.002-0.008,0.003-0.016,0.004-0.024l2.995-16.565
				c0.132-0.729-0.067-1.479-0.542-2.047c-0.475-0.569-1.178-0.897-1.918-0.897h-8.784c-0.006,0-0.012,0-0.018,0h-22.975
				c-1.381,0-2.5,1.119-2.5,2.5c0,1.381,1.119,2.5,2.5,2.5h9.104l-1.607,11.521H237.17c-1.381,0-2.5,1.119-2.5,2.5
				c0,1.381,1.119,2.5,2.5,2.5h67.778l-1.57,11.25H241.32c-1.381,0-2.5,1.119-2.5,2.5c0,1.381,1.119,2.5,2.5,2.5h61.361
				l-1.62,11.609H245.32c-1.381,0-2.5,1.119-2.5,2.5c0,1.381,1.119,2.5,2.5,2.5h55.044l-1.465,10.499h-6.472
				c-1.381,0-2.5,1.119-2.5,2.5c0,1.381,1.119,2.5,2.5,2.5h25.77c1.209,0,2.245-0.865,2.46-2.056l2.789-15.429
				c0.002-0.01,0.003-0.019,0.005-0.029L326.439,322.56z M321.913,319.49h-3.484l1.975-11.25h3.543L321.913,319.49z M321.009,324.49
				L318.91,336.1h-3.396l2.038-11.609H321.009z M324.85,303.24h-3.569l2.022-11.521h3.63L324.85,303.24z M312.302,291.72h5.925
				l-2.022,11.521h-5.51L312.302,291.72z M309.997,308.24h5.33l-1.975,11.25h-4.925L309.997,308.24z M307.73,324.49h4.745
				l-2.038,11.609h-4.327L307.73,324.49z M305.413,341.1h4.147l-1.843,10.499h-3.769L305.413,341.1z M312.793,351.599l1.843-10.499
				h3.37l-1.898,10.499H312.793z"/>
		</g>
		<g>
			<path style="fill:#407BFF;" d="M299.992,287.531c-0.474-0.517-1.143-0.812-1.844-0.812H196.407c-0.761,0-1.479,0.346-1.954,0.94
				c-0.474,0.595-0.652,1.373-0.483,2.114l3.747,16.469c0,0.001,0.001,0.003,0.001,0.004l11.013,48.406
				c0.259,1.138,1.271,1.945,2.438,1.945h81.259c1.295,0,2.376-0.99,2.49-2.28l5.722-64.879
				C300.7,288.741,300.466,288.049,299.992,287.531z M291.505,336.097H279.9l0.512-11.602h12.116L291.505,336.097z M227.12,351.599
				l-1.358-10.502h12.486l0.76,10.502H227.12z M241.697,319.495l-0.815-11.254h16.466v11.254H241.697z M257.349,324.495v11.602
				h-14.45l-0.84-11.602H257.349z M262.349,308.241h13.774l-0.496,11.254h-13.278V308.241z M262.349,303.241V291.72h14.503
				l-0.508,11.522H262.349z M257.349,303.241h-16.828l-0.834-11.522h17.662V303.241z M235.507,303.241h-14.639l-1.49-11.522h15.294
				L235.507,303.241z M235.869,308.241l0.815,11.254H222.97l-1.455-11.254H235.869z M217.928,319.495h-12.069l-2.56-11.254h13.175
				L217.928,319.495z M206.996,324.495h11.578l1.5,11.602h-10.438L206.996,324.495z M223.616,324.495h13.43l0.84,11.602h-12.77
				L223.616,324.495z M243.261,341.097h14.088v10.502h-13.328L243.261,341.097z M262.349,341.097h12.325l-0.463,10.502h-11.862
				V341.097z M262.349,336.097v-11.602h13.057l-0.512,11.602H262.349z M280.632,319.495l0.496-11.254h12.833l-0.992,11.254H280.632z
				 M294.402,303.241h-13.054l0.508-11.522h13.562L294.402,303.241z M214.337,291.72l1.489,11.522h-13.666l-2.621-11.522H214.337z
				 M210.773,341.097h9.947l1.358,10.502h-8.915L210.773,341.097z M279.216,351.599l0.463-10.502h11.385l-0.926,10.502H279.216z"/>
		</g>
		<g>
			<path style="fill:#407BFF;" d="M286.508,408.728h-81.512c-1.381,0-2.5-1.119-2.5-2.5c0-1.381,1.119-2.5,2.5-2.5h81.512
				c0.838,0,1.52-0.682,1.52-1.518v-6.484c0-0.71-0.504-1.335-1.198-1.485l-67.401-14.579c-6.022-1.302-10.393-6.719-10.393-12.881
				v-12.681c0-1.381,1.119-2.5,2.5-2.5c1.381,0,2.5,1.119,2.5,2.5v12.681c0,3.824,2.712,7.186,6.45,7.994l67.402,14.579
				c2.979,0.645,5.141,3.324,5.141,6.372v6.484C293.028,405.804,290.103,408.728,286.508,408.728z"/>
		</g>
		<g>
			<path style="fill:#263238;" d="M293.507,407.17c1.738,3.01,0.111,7.202-3.633,9.364c-3.744,2.162-8.189,1.474-9.926-1.535
				c-1.738-3.01-0.111-7.202,3.633-9.364C287.325,403.473,291.769,404.16,293.507,407.17z"/>
			<path style="fill:#407BFF;" d="M288.603,408.939c0.853,1.477,0.055,3.535-1.783,4.596c-1.838,1.061-4.019,0.724-4.872-0.754
				s-0.055-3.535,1.783-4.596C285.569,407.124,287.75,407.461,288.603,408.939z"/>
		</g>
		<g>
			<path style="fill:#263238;" d="M209.507,407.17c1.738,3.01,0.111,7.202-3.633,9.364c-3.744,2.162-8.189,1.474-9.926-1.535
				c-1.738-3.01-0.111-7.202,3.633-9.364C203.325,403.473,207.769,404.16,209.507,407.17z"/>
			<path style="fill:#407BFF;" d="M204.603,408.939c0.853,1.477,0.055,3.535-1.783,4.596s-4.019,0.724-4.872-0.754
				c-0.853-1.477-0.055-3.535,1.783-4.596C201.569,407.124,203.75,407.461,204.603,408.939z"/>
		</g>
		<g>
			<path style="fill:#407BFF;" d="M238.593,239.58c0.449,0.298,1.005,0.386,1.524,0.242l10.236-2.843
				c0.929-0.258,1.506-1.183,1.329-2.131l-2.017-10.831c-0.095-0.511-0.4-0.959-0.841-1.235l-17.215-10.777
				c-0.829-0.519-1.917-0.307-2.491,0.484l-9.05,12.484c-0.62,0.855-0.403,2.055,0.478,2.639L238.593,239.58z M247.617,233.689
				c0.43-0.55,1.225-0.648,1.775-0.218c0.55,0.43,0.648,1.225,0.218,1.775c-0.43,0.551-1.225,0.648-1.775,0.218
				C247.285,235.035,247.187,234.24,247.617,233.689z"/>
			<g>
				<path style="fill:#FFFFFF;" d="M240.898,221.634c1.644,1.284,1.928,3.072,0.957,4.316c-0.971,1.244-2.676,1.363-4.249,0.135
					c-1.644-1.284-2.01-2.997-0.972-4.327C237.639,220.471,239.325,220.406,240.898,221.634z M240.004,222.778
					c-1.101-0.86-1.876-0.752-2.323-0.18c-0.48,0.615-0.38,1.43,0.807,2.357c1.087,0.849,1.935,0.705,2.349,0.176
					C241.25,224.603,241.176,223.694,240.004,222.778z M230.925,218.841l1.161-1.487l5.468,13.985l-1.161,1.487L230.925,218.841z
					 M230.73,224.514c1.644,1.284,1.929,3.071,0.957,4.315c-0.972,1.244-2.676,1.363-4.249,0.135
					c-1.644-1.284-2.01-2.997-0.971-4.327C227.472,223.35,229.158,223.285,230.73,224.514z M229.837,225.657
					c-1.101-0.86-1.876-0.752-2.323-0.18c-0.48,0.615-0.38,1.43,0.807,2.357c1.087,0.849,1.935,0.706,2.348,0.177
					C231.083,227.482,231.01,226.573,229.837,225.657z"/>
			</g>
		</g>
		<g>
			<path style="fill:#407BFF;" d="M299.638,304.207c-0.228-0.488-0.656-0.854-1.174-1.002l-10.216-2.916
				c-0.927-0.265-1.902,0.224-2.246,1.124l-3.931,10.292c-0.186,0.486-0.159,1.027,0.073,1.492l9.063,18.176
				c0.436,0.875,1.475,1.262,2.378,0.886l14.234-5.929c0.975-0.406,1.416-1.543,0.97-2.501L299.638,304.207z M288.866,304.525
				c-0.654,0.245-1.383-0.086-1.628-0.74c-0.245-0.654,0.086-1.383,0.74-1.628c0.654-0.245,1.383,0.086,1.629,0.74
				C289.852,303.55,289.52,304.279,288.866,304.525z"/>
			<path style="opacity:0.6;fill:#FFFFFF;enable-background:new    ;" d="M299.638,304.207c-0.228-0.488-0.656-0.854-1.174-1.002
				l-10.216-2.916c-0.927-0.265-1.902,0.224-2.246,1.124l-3.931,10.292c-0.186,0.486-0.159,1.027,0.073,1.492l9.063,18.176
				c0.436,0.875,1.475,1.262,2.378,0.886l14.234-5.929c0.975-0.406,1.416-1.543,0.97-2.501L299.638,304.207z M288.866,304.525
				c-0.654,0.245-1.383-0.086-1.628-0.74c-0.245-0.654,0.086-1.383,0.74-1.628c0.654-0.245,1.383,0.086,1.629,0.74
				C289.852,303.55,289.52,304.279,288.866,304.525z"/>
			<g>
				<path style="fill:#263238;" d="M288.308,318.314c-0.733-1.954-0.042-3.627,1.436-4.181c1.478-0.554,2.994,0.233,3.695,2.102
					c0.733,1.953,0.151,3.606-1.429,4.198C290.481,321.007,289.009,320.183,288.308,318.314z M289.668,317.805
					c0.491,1.308,1.208,1.62,1.888,1.365c0.731-0.274,1.07-1.021,0.542-2.431c-0.484-1.291-1.283-1.612-1.912-1.376
					C289.557,315.598,289.145,316.412,289.668,317.805z M295.359,325.901l-1.767,0.663l2.632-14.783l1.767-0.663L295.359,325.901z
					 M298.484,321.163c-0.733-1.954-0.043-3.626,1.435-4.181c1.478-0.555,2.994,0.233,3.695,2.102
					c0.733,1.953,0.151,3.605-1.429,4.198C300.657,323.855,299.185,323.032,298.484,321.163z M299.843,320.654
					c0.491,1.308,1.208,1.62,1.888,1.365c0.73-0.274,1.07-1.021,0.541-2.431c-0.484-1.291-1.283-1.612-1.911-1.376
					C299.733,318.447,299.321,319.26,299.843,320.654z"/>
			</g>
		</g>
		<g>
			<path style="fill:#263238;" d="M203.977,302.327c0.765-0.347,1.34-1.01,1.579-1.815l4.697-15.881
				c0.426-1.441-0.32-2.968-1.718-3.518l-15.985-6.281c-0.754-0.296-1.598-0.263-2.327,0.092l-28.468,13.857
				c-1.37,0.667-1.989,2.281-1.417,3.693l9.029,22.277c0.619,1.527,2.384,2.231,3.884,1.549L203.977,302.327z M203.644,285.531
				c-0.373-1.023,0.155-2.155,1.178-2.527c1.023-0.373,2.155,0.155,2.527,1.178c0.373,1.023-0.155,2.155-1.178,2.528
				C205.148,287.081,204.017,286.554,203.644,285.531z"/>
			<g>
				<path style="fill:#FFFFFF;" d="M182.156,284.456c3.056-1.113,5.654-0.012,6.496,2.3c0.842,2.312-0.409,4.663-3.332,5.728
					c-3.056,1.113-5.623,0.182-6.523-2.289C177.926,287.803,179.232,285.521,182.156,284.456z M182.931,286.582
					c-2.046,0.745-2.544,1.86-2.157,2.922c0.416,1.143,1.576,1.684,3.782,0.88c2.02-0.736,2.531-1.976,2.173-2.959
					C186.371,286.443,185.109,285.789,182.931,286.582z M170.225,295.333l-1.007-2.764l23.006,4.323l1.007,2.764L170.225,295.333z
					 M177.564,300.276c3.056-1.113,5.654-0.013,6.496,2.299c0.842,2.312-0.408,4.664-3.332,5.728
					c-3.056,1.113-5.622,0.182-6.523-2.29C173.334,303.622,174.64,301.341,177.564,300.276z M178.338,302.401
					c-2.046,0.745-2.544,1.86-2.157,2.923c0.416,1.143,1.576,1.684,3.782,0.88c2.02-0.736,2.532-1.975,2.173-2.959
					C181.779,302.262,180.517,301.608,178.338,302.401z"/>
			</g>
		</g>
		<path style="fill:none;stroke:#407BFF;stroke-linecap:round;stroke-linejoin:round;stroke-miterlimit:10;" d="M206.357,284.018
			c0,0,32.269-6.469,37.138-19.919"/>
		<path style="fill:none;stroke:#263238;stroke-linecap:round;stroke-linejoin:round;stroke-miterlimit:10;" d="M249.611,235.246
			c0,0,10.375,10.851,20.906,7.556"/>
		<path style="fill:none;stroke:#407BFF;stroke-linecap:round;stroke-linejoin:round;stroke-miterlimit:10;" d="M288.422,303.241
			c0,0-2.731-2.258-2.208-7.645"/>
	</g>
</g>
</svg>
